# SSTK version 0.8.0
# 16
mtllib original-16.mtl
o Side_Door2/Side_Door/mesh29/mesh29-geometry#mesh29-geometry
v -0.570333 -0.550607 -0.399366
v -0.570333 0.368990 -0.369448
v -0.570333 0.368990 -0.399366
v -0.570333 -0.550607 -0.369448
v -0.193992 0.368990 -0.399366
v -0.193992 -0.550607 -0.399366
v -0.193992 0.368990 -0.369448
v -0.193992 -0.550607 -0.369448
vt 0 0
vt 0.010389 0.319335
vt 0 0.319335
vt 0.010389 0
vt 0.130687 0.010389
vt 0.130687 0
vt 0.130687 0.319335
vt -0.130687 0.010389
vt -0.130687 0
vt -0.130687 0.319335
vt 0 0.010389
vt -0.010389 0.319335
vt -0.010389 0
vn -1 0 0
vn 1 0 0
vn 0 1 0
vn 0 -1 0
vn 0 0 -1
vn 0 0 1
usemtl material_0_0
f 1/1/1 2/2/1 3/3/1
f 2/2/1 1/1/1 4/4/1
f 3/3/2 2/2/2 1/1/2
f 4/4/2 1/1/2 2/2/2
f 2/5/3 5/1/3 3/6/3
f 3/6/4 5/1/4 2/5/4
f 5/3/5 1/6/5 3/7/5
f 3/7/6 1/6/6 5/3/6
f 6/1/4 4/8/4 1/9/4
f 1/9/3 4/8/3 6/1/3
f 4/9/6 7/3/6 2/10/6
f 2/10/5 7/3/5 4/9/5
f 5/1/3 2/5/3 7/11/3
f 7/11/4 2/5/4 5/1/4
f 1/6/5 5/3/5 6/1/5
f 6/1/6 5/3/6 1/6/6
f 4/8/4 6/1/4 8/11/4
f 8/11/3 6/1/3 4/8/3
f 7/3/6 4/9/6 8/1/6
f 8/1/5 4/9/5 7/3/5
f 7/12/2 6/1/2 5/3/2
f 5/3/1 6/1/1 7/12/1
f 6/1/2 7/12/2 8/13/2
f 8/13/1 7/12/1 6/1/1
