# SSTK version 0.8.0
# 4
mtllib original-4.mtl
o Case_Top_and_Bottom1/Case_Top_and_Bottom/mesh7/mesh7-geometry#mesh7-geometry
v 0.580737 0.339071 0.400557
v 0.246911 0.339071 -0.369448
v 0.580737 0.339071 -0.369448
v 0.246911 0.339071 0.400557
v 0.246911 0.348519 -0.369448
v 0.594909 0.353243 -0.249774
v 0.246911 0.348519 0.400557
v 0.246911 0.339071 -0.348977
v 0.610655 0.368989 -0.369448
v 0.610655 0.368989 -0.249774
v 0.594909 0.353243 -0.180490
v 0.590185 0.348519 0.400557
v 0.246911 0.348519 -0.348977
v -0.570333 0.368989 -0.369448
v 0.594909 0.368989 -0.249774
v 0.594909 0.368989 -0.180490
v 0.594909 0.353243 0.232069
v 0.594909 0.353243 0.301354
v 0.590185 0.348519 0.421027
v 0.216992 0.348519 -0.369448
v 0.610655 0.368989 -0.180490
v 0.610655 0.368989 0.232069
v 0.610655 0.368989 0.421027
v 0.216992 0.348519 0.421027
v -0.176670 0.348519 -0.369448
v 0.594909 0.368989 0.232069
v 0.594909 0.368989 0.301354
v 0.610655 0.368989 0.301354
v -0.176670 0.348519 0.421027
v -0.570333 0.368989 0.421027
v 0.216992 0.339071 -0.369448
v -0.206589 0.348519 -0.369448
v -0.176670 0.339071 0.421027
v 0.216992 0.339071 0.421027
v -0.206589 0.339071 -0.369448
v -0.206589 0.348519 0.400557
v -0.176670 0.339071 -0.369448
v -0.549863 0.348519 0.421027
v -0.554587 0.368989 0.301354
v -0.540415 0.339071 -0.369448
v -0.554587 0.368989 -0.249774
v -0.554587 0.353243 0.301354
v -0.570333 0.368989 0.301354
v -0.206589 0.339071 0.400557
v -0.554587 0.353243 -0.249774
v -0.570333 0.368989 -0.249774
v -0.549863 0.348519 0.400557
v -0.554587 0.368989 -0.180490
v -0.540415 0.339071 0.400557
v -0.554587 0.353243 0.232069
v -0.554587 0.368989 0.232069
v -0.554587 0.353243 -0.180490
v -0.570333 0.368989 -0.180490
v -0.570333 0.368989 0.232069
vt -0.010389 0.267388
vt -0.126312 0
vt -0.010389 0
vt -0.126312 0.267388
vt 0.126312 0.003281
vt 0.010389 0
vt 0.126312 0
vt 0 -0.007346
vt -0.041557 -0.000387
vt -0.267388 -0.007346
vt -0.126312 0.003281
vt -0.126312 0.007108
vt 0 0.010389
vt 0.007108 0
vt 0 0.003281
vt 0 0
vt -0.041557 0.007346
vt -0.065617 -0.000387
vt -0.007108 0.003281
vt 0.007108 0.003281
vt 0.267388 0
vt 0.267388 0.003281
vt 0.410105 0.010389
vt 0 0.007346
vt -0.005468 0.010389
vt -0.005468 0.004921
vt -0.041557 0.004921
vt -0.065617 0.010389
vt -0.065617 0.004921
vt -0.20888 -0.000387
vt -0.23294 -0.000387
vt -0.267388 -0.002707
vt -0.007108 0.274497
vt -0.007108 0.267388
vt -0.136702 0
vt 0.136702 0.003281
vt 0.410105 0
vt 0 0.041557
vt -0.041557 0.010389
vt 0.005468 0.041557
vt 0.005468 0.004921
vt 0.005468 0.010389
vt -0.20888 0.007346
vt -0.274497 0.007346
vt -0.136702 0.274497
vt -0.274497 -0.002707
vt 0.273403 0.003281
vt 0.005468 0.065617
vt -0.065617 0.007346
vt 0 0.20888
vt 0 0.065617
vt -0.20888 0.004921
vt -0.23294 0.010389
vt -0.23294 0.004921
vt -0.23294 0.007346
vt -0.273403 0.003281
vt -0.136702 0.003281
vt -0.410105 0.010389
vt -0.274497 0.003281
vt 0.283793 0.003281
vt 0.136702 0
vt 0.005468 0.20888
vt -0.20888 0.010389
vt 0.005468 0.23294
vt 0 0.274497
vt 0 0.23294
vt -0.273403 0
vt 0.410105 0.274497
vt -0.274497 0
vt 0.283793 0
vt -0.283793 0.267388
vt -0.283793 0
vt 0.273403 0
vt 0.274497 0
vt 0.274497 0.003281
vt -0.402997 0.003281
vt 0.404637 0.23294
vt -0.273403 0.274497
vt 0.399716 0
vt -0.267388 0.003281
vt 0.404637 0.041557
vt 0.274497 0.297334
vt 0.23294 0.289601
vt 0.274497 0.287281
vt -0.402997 0.274497
vt 0.410105 0.23294
vt -0.399716 0
vt 0 0.282642
vt 0.041557 0.289601
vt 0 0.297334
vt -0.267388 0
vt 0.410105 0.041557
vt 0.23294 0.297334
vt -0.402997 0.267388
vt 0.404637 0.065617
vt 0.404637 0.010389
vt 0.404637 0.004921
vt -0.399716 0.267388
vt 0.267388 0.287281
vt 0.041557 0.297334
vt -0.283793 0.003281
vt -0.404637 0.004921
vt -0.404637 0.010389
vt 0.20888 0.289601
vt 0.041557 0.004921
vt 0.065617 0.010389
vt 0.041557 0.010389
vt 0.404637 0.20888
vt 0.20888 0.010389
vt 0.23294 0.004921
vt 0.23294 0.010389
vt 0.267388 0.282642
vt 0.20888 0.004921
vt 0.065617 0.289601
vt 0.065617 0.004921
vt 0.410105 0.065617
vt 0.20888 0.297334
vt 0.410105 0.20888
vt 0.065617 0.297334
vn 0 -1 0
vn 0 1 0
vn 0 0 -1
vn 0 0 1
vn 0.7071067811865475 -0.7071067811865475 0
vn -0.7071067811865475 0.7071067811865475 0
vn -1 0 0
vn 1 0 0
vn -0.7071067811865475 -0.7071067811865475 0
vn 0.7071067811865475 0.7071067811865475 0
usemtl material_0_0
f 1/1/1 2/2/1 3/3/1
f 2/2/1 1/1/1 4/4/1
f 3/3/2 2/2/2 1/1/2
f 4/4/2 1/1/2 2/2/2
f 5/5/3 3/6/3 2/7/3
f 2/7/4 3/6/4 5/5/4
f 3/8/5 6/9/5 1/10/5
f 1/10/6 6/9/6 3/8/6
f 1/3/4 7/11/4 4/2/4
f 4/2/3 7/11/3 1/3/3
f 2/2/1 4/4/1 8/12/1
f 8/12/2 4/4/2 2/2/2
f 3/6/3 5/5/3 9/13/3
f 9/13/4 5/5/4 3/6/4
f 8/14/7 5/15/7 2/16/7
f 2/16/8 5/15/8 8/14/8
f 3/8/5 10/17/5 6/9/5
f 6/9/6 10/17/6 3/8/6
f 1/10/5 6/9/5 11/18/5
f 11/18/6 6/9/6 1/10/6
f 7/11/4 1/3/4 12/19/4
f 12/19/3 1/3/3 7/11/3
f 13/20/7 4/21/7 7/22/7
f 7/22/8 4/21/8 13/20/8
f 4/21/7 13/20/7 8/14/7
f 8/14/8 13/20/8 4/21/8
f 9/13/3 5/5/3 14/23/3
f 14/23/4 5/5/4 9/13/4
f 10/17/5 3/8/5 9/24/5
f 9/24/6 3/8/6 10/17/6
f 5/15/7 8/14/7 13/20/7
f 13/20/8 8/14/8 5/15/8
f 15/25/4 6/26/4 10/13/4
f 10/13/3 6/26/3 15/25/3
f 6/27/8 16/28/8 11/29/8
f 11/29/7 16/28/7 6/27/7
f 1/10/5 11/18/5 17/30/5
f 17/30/6 11/18/6 1/10/6
f 18/31/5 12/32/5 1/10/5
f 1/10/6 12/32/6 18/31/6
f 19/33/1 7/4/1 12/34/1
f 12/34/2 7/4/2 19/33/2
f 20/35/1 13/12/1 7/4/1
f 7/4/2 13/12/2 20/35/2
f 20/36/3 14/23/3 5/5/3
f 5/5/4 14/23/4 20/36/4
f 14/37/2 10/38/2 9/16/2
f 9/16/1 10/38/1 14/37/1
f 13/12/1 20/35/1 5/2/1
f 5/2/2 20/35/2 13/12/2
f 16/28/8 6/27/8 15/39/8
f 15/39/7 6/27/7 16/28/7
f 10/38/2 14/37/2 15/40/2
f 15/40/1 14/37/1 10/38/1
f 21/13/3 11/41/3 16/42/3
f 16/42/4 11/41/4 21/13/4
f 17/30/5 11/18/5 22/43/5
f 22/43/6 11/18/6 17/30/6
f 1/10/5 17/30/5 18/31/5
f 18/31/6 17/30/6 1/10/6
f 18/31/5 23/44/5 12/32/5
f 12/32/6 23/44/6 18/31/6
f 7/4/1 19/33/1 24/45/1
f 24/45/2 19/33/2 7/4/2
f 12/32/5 23/44/5 19/46/5
f 19/46/6 23/44/6 12/32/6
f 20/35/1 7/4/1 24/45/1
f 24/45/2 7/4/2 20/35/2
f 25/47/3 14/23/3 20/36/3
f 20/36/4 14/23/4 25/47/4
f 15/40/2 14/37/2 16/48/2
f 16/48/1 14/37/1 15/40/1
f 22/43/5 11/18/5 21/49/5
f 21/49/6 11/18/6 22/43/6
f 16/48/2 22/50/2 21/51/2
f 21/51/1 22/50/1 16/48/1
f 26/25/4 17/26/4 22/13/4
f 22/13/3 17/26/3 26/25/3
f 17/52/8 27/53/8 18/54/8
f 18/54/7 27/53/7 17/52/7
f 23/44/5 18/31/5 28/55/5
f 28/55/6 18/31/6 23/44/6
f 29/56/4 24/57/4 19/19/4
f 19/19/3 24/57/3 29/56/3
f 30/58/4 19/19/4 23/13/4
f 23/13/3 19/19/3 30/58/3
f 24/59/8 31/16/8 20/15/8
f 20/15/7 31/16/7 24/59/7
f 32/60/3 14/23/3 25/47/3
f 25/47/4 14/23/4 32/60/4
f 31/61/3 25/47/3 20/36/3
f 20/36/4 25/47/4 31/61/4
f 16/48/2 14/37/2 26/62/2
f 26/62/1 14/37/1 16/48/1
f 22/50/2 16/48/2 26/62/2
f 26/62/1 16/48/1 22/50/1
f 27/53/8 17/52/8 26/63/8
f 26/63/7 17/52/7 27/53/7
f 28/13/3 18/41/3 27/42/3
f 27/42/4 18/41/4 28/13/4
f 27/64/2 23/65/2 28/66/2
f 28/66/1 23/65/1 27/64/1
f 33/67/4 24/57/4 29/56/4
f 29/56/3 24/57/3 33/67/3
f 30/58/4 29/56/4 19/19/4
f 19/19/3 29/56/3 30/58/3
f 23/65/2 27/64/2 30/68/2
f 30/68/1 27/64/1 23/65/1
f 31/16/8 24/59/8 34/69/8
f 34/69/7 24/59/7 31/16/7
f 35/70/3 14/23/3 32/60/3
f 32/60/4 14/23/4 35/70/4
f 25/67/1 36/71/1 32/72/1
f 32/72/2 36/71/2 25/67/2
f 25/47/3 31/61/3 37/73/3
f 37/73/4 31/61/4 25/47/4
f 26/62/2 14/37/2 27/64/2
f 27/64/1 14/37/1 26/62/1
f 24/57/4 33/67/4 34/35/4
f 34/35/3 33/67/3 24/57/3
f 25/15/7 33/74/7 29/75/7
f 29/75/8 33/74/8 25/15/8
f 29/56/4 30/58/4 38/76/4
f 38/76/3 30/58/3 29/56/3
f 30/68/2 27/64/2 39/77/2
f 39/77/1 27/64/1 30/68/1
f 33/78/1 31/35/1 34/45/1
f 34/45/2 31/35/2 33/78/2
f 14/23/3 35/70/3 40/79/3
f 40/79/4 35/70/4 14/23/4
f 36/80/8 35/16/8 32/15/8
f 32/15/7 35/16/7 36/80/7
f 29/78/1 36/71/1 25/67/1
f 25/67/2 36/71/2 29/78/2
f 31/35/1 33/78/1 37/67/1
f 37/67/2 33/78/2 31/35/2
f 33/74/7 25/15/7 37/16/7
f 37/16/8 25/15/8 33/74/8
f 27/64/2 14/37/2 41/81/2
f 41/81/1 14/37/1 27/64/1
f 30/82/9 42/83/9 38/84/9
f 38/84/10 42/83/10 30/82/10
f 36/71/1 29/78/1 38/85/1
f 38/85/2 29/78/2 36/71/2
f 39/77/2 27/64/2 41/81/2
f 41/81/1 27/64/1 39/77/1
f 30/68/2 39/77/2 43/86/2
f 43/86/1 39/77/1 30/68/1
f 44/71/1 40/87/1 35/72/1
f 35/72/2 40/87/2 44/71/2
f 40/88/9 45/89/9 14/90/9
f 14/90/10 45/89/10 40/88/10
f 35/16/8 36/80/8 44/91/8
f 44/91/7 36/80/7 35/16/7
f 41/81/2 14/37/2 46/92/2
f 46/92/1 14/37/1 41/81/1
f 42/83/9 30/82/9 43/93/9
f 43/93/10 30/82/10 42/83/10
f 45/89/9 38/84/9 42/83/9
f 42/83/10 38/84/10 45/89/10
f 36/71/1 38/85/1 47/94/1
f 47/94/2 38/85/2 36/71/2
f 39/77/2 41/81/2 48/95/2
f 48/95/1 41/81/1 39/77/1
f 39/96/3 42/97/3 43/23/3
f 43/23/4 42/97/4 39/96/4
f 40/87/1 44/71/1 49/98/1
f 49/98/2 44/71/2 40/87/2
f 40/88/9 47/99/9 45/89/9
f 45/89/10 47/99/10 40/88/10
f 14/90/9 45/89/9 46/100/9
f 46/100/10 45/89/10 14/90/10
f 47/76/4 44/72/4 36/101/4
f 36/101/3 44/72/3 47/76/3
f 46/58/4 45/102/4 41/103/4
f 41/103/3 45/102/3 46/58/3
f 45/89/9 47/99/9 38/84/9
f 38/84/10 47/99/10 45/89/10
f 45/89/9 42/83/9 50/104/9
f 50/104/10 42/83/10 45/89/10
f 45/105/7 48/106/7 41/107/7
f 41/107/8 48/106/8 45/105/8
f 39/77/2 48/95/2 51/108/2
f 51/108/1 48/95/1 39/77/1
f 51/109/7 42/110/7 39/111/7
f 39/111/8 42/110/8 51/109/8
f 44/72/4 47/76/4 49/87/4
f 49/87/3 47/76/3 44/72/3
f 47/99/9 40/88/9 49/112/9
f 49/112/10 40/88/10 47/99/10
f 42/110/7 51/109/7 50/113/7
f 50/113/8 51/109/8 42/110/8
f 45/89/9 50/104/9 52/114/9
f 52/114/10 50/104/10 45/89/10
f 48/106/7 45/105/7 52/115/7
f 52/115/8 45/105/8 48/106/8
f 53/116/2 51/108/2 48/95/2
f 48/95/1 51/108/1 53/116/1
f 54/58/4 50/102/4 51/103/4
f 51/103/3 50/102/3 54/58/3
f 54/117/9 52/114/9 50/104/9
f 50/104/10 52/114/10 54/117/10
f 48/96/3 52/97/3 53/23/3
f 53/23/4 52/97/4 48/96/4
f 51/108/2 53/116/2 54/118/2
f 54/118/1 53/116/1 51/108/1
f 52/114/9 54/117/9 53/119/9
f 53/119/10 54/117/10 52/114/10
