# SSTK version 0.8.0
# 5
mtllib original-5.mtl
o Divider1/Divider/mesh9/mesh9-geometry#mesh9-geometry
v 0.216992 -0.530136 0.400557
v 0.216992 0.348519 -0.369448
v 0.216992 -0.530136 -0.369448
v 0.216992 0.348519 0.400557
v 0.246911 -0.530136 -0.369448
v 0.246911 -0.530136 0.400557
v 0.246911 0.348519 0.400557
v 0.246911 0.348519 -0.369448
vt 0.267388 0
vt 0 0.305118
vt 0 0
vt 0.267388 0.305118
vt 0.010389 0.305118
vt 0.010389 0
vt -0.010389 0
vt 0 0.267388
vt -0.010389 0.267388
vt -0.010389 0.305118
vt 0.010389 0.267388
vt -0.267388 0.305118
vt -0.267388 0
vn -1 0 0
vn 1 0 0
vn 0 0 -1
vn 0 0 1
vn 0 -1 0
vn 0 1 0
usemtl material_0_0
f 1/1/1 2/2/1 3/3/1
f 2/2/1 1/1/1 4/4/1
f 3/3/2 2/2/2 1/1/2
f 4/4/2 1/1/2 2/2/2
f 2/5/3 5/3/3 3/6/3
f 3/6/4 5/3/4 2/5/4
f 3/7/5 6/8/5 1/9/5
f 1/9/6 6/8/6 3/7/6
f 6/3/4 4/10/4 1/7/4
f 1/7/3 4/10/3 6/3/3
f 7/8/6 2/6/6 4/11/6
f 4/11/5 2/6/5 7/8/5
f 5/3/3 2/5/3 8/2/3
f 8/2/4 2/5/4 5/3/4
f 6/8/5 3/7/5 5/3/5
f 5/3/6 3/7/6 6/8/6
f 4/10/4 6/3/4 7/2/4
f 7/2/3 6/3/3 4/10/3
f 2/6/6 7/8/6 8/3/6
f 8/3/5 7/8/5 2/6/5
f 7/12/2 5/3/2 8/2/2
f 8/2/1 5/3/1 7/12/1
f 5/3/2 7/12/2 6/13/2
f 6/13/1 7/12/1 5/3/1
