# SSTK version 0.8.0
# 2
mtllib original-2.mtl
o Side_1_1/Side_1/mesh3/mesh3-geometry#mesh3-geometry
v 0.610655 0.368990 0.232069
v 0.594909 -0.534860 0.232069
v 0.610655 -0.550607 0.232069
v 0.594909 0.353243 0.232069
v 0.610655 -0.550607 -0.180490
v 0.610655 0.368990 -0.180490
v 0.594909 -0.534860 0.301354
v 0.594909 -0.534860 -0.180490
v 0.580737 0.339071 0.400557
v 0.594909 0.353243 0.301354
v 0.580737 -0.520688 -0.369448
v 0.594909 -0.534860 -0.249774
v 0.594909 0.353243 -0.180490
v 0.610655 0.368990 0.301354
v 0.590185 -0.530136 0.400557
v 0.594909 0.353243 -0.249774
v 0.590185 0.348519 0.400557
v 0.610655 -0.550607 0.301354
v 0.610655 0.368990 0.421027
v 0.610655 -0.550607 -0.369448
v 0.590185 -0.530136 0.421027
v 0.580737 -0.520688 0.400557
v 0.580737 0.339071 -0.369448
v 0.610655 -0.550607 -0.249774
v 0.610655 0.368990 -0.369448
v 0.610655 0.368990 -0.249774
v 0.590185 0.348519 0.421027
v 0.610655 -0.550607 0.421027
vt 0 0.319335
vt -0.005468 0.005468
vt 0 0
vt -0.005468 0.313867
vt 0.20888 0.007733
vt 0.065617 0
vt 0.20888 0
vt -0.065617 0
vt -0.20888 0.319335
vt -0.20888 0
vt 0.065617 0.225804
vt 0.20888 0.218071
vt 0.20888 0.225804
vt -0.20888 0.313867
vt -0.23294 0.005468
vt -0.20888 0.005468
vt 0.065617 0.007733
vt -0.065617 0.319335
vt 0.267388 0.211111
vt -0.23294 0.313867
vt 0 0.014693
vt 0.23294 0.007733
vt 0.041557 0.007733
vt 0.005468 0.005468
vt 0.065617 0.218071
vt 0.23294 0.218071
vt 0.005468 0.313867
vt 0.267388 0.010053
vt -0.041557 0.005468
vt -0.065617 0.313867
vt -0.065617 0.005468
vt 0.041557 0.218071
vt 0.267388 0.215751
vt 0.274497 0.225804
vt 0.23294 0.225804
vt 0.274497 0.010053
vt 0.267388 0.014693
vt -0.041557 0.313867
vt 0 0.211111
vt -0.010389 0.010389
vt -0.007108 0.312227
vt -0.010389 0.308946
vt -0.274497 0.319335
vt -0.23294 0
vt -0.23294 0.319335
vt 0.23294 0
vt 0.041557 0
vt 0.010389 0.010389
vt 0.274497 0.007108
vt 0.267388 0.312227
vt 0.267388 0.007108
vt -0.007108 0.007108
vt 0.267388 0.308946
vt 0 0.010389
vt 0.267388 0.010389
vt 0.041557 0.225804
vt 0 0.308946
vt 0.274497 0.215751
vt -0.274497 0
vt 0.274497 0
vt -0.041557 0.319335
vt -0.041557 0
vt 0.010389 0.308946
vt 0.274497 0.312227
vt 0 0.225804
vn 0 0 1
vn 0 0 -1
vn -0.7071067811865475 -0.7071067811865475 0
vn 0.7071067811865475 0.7071067811865475 0
vn 1 0 0
vn -1 0 0
vn -0.7071067811865475 0.7071067811865475 0
vn 0.7071067811865475 -0.7071067811865475 0
usemtl material_0_0
f 1/1/1 2/2/1 3/3/1
f 2/2/1 1/1/1 4/4/1
f 3/3/2 2/2/2 1/1/2
f 4/4/2 1/1/2 2/2/2
f 2/5/3 5/6/3 3/7/3
f 3/7/4 5/6/4 2/5/4
f 5/8/5 1/9/5 3/10/5
f 3/10/6 1/9/6 5/8/6
f 6/11/7 4/12/7 1/13/7
f 1/13/8 4/12/8 6/11/8
f 4/14/5 7/15/5 2/16/5
f 2/16/6 7/15/6 4/14/6
f 5/6/3 2/5/3 8/17/3
f 8/17/4 2/5/4 5/6/4
f 1/9/5 5/8/5 6/18/5
f 6/18/6 5/8/6 1/9/6
f 6/11/7 9/19/7 4/12/7
f 4/12/8 9/19/8 6/11/8
f 7/15/5 4/14/5 10/20/5
f 10/20/6 4/14/6 7/15/6
f 11/21/3 2/5/3 7/22/3
f 7/22/4 2/5/4 11/21/4
f 8/17/3 2/5/3 12/23/3
f 12/23/4 2/5/4 8/17/4
f 8/24/2 6/1/2 5/3/2
f 5/3/1 6/1/1 8/24/1
f 13/25/7 9/19/7 6/11/7
f 6/11/8 9/19/8 13/25/8
f 4/12/7 9/19/7 10/26/7
f 10/26/8 9/19/8 4/12/8
f 14/1/2 7/24/2 10/27/2
f 10/27/1 7/24/1 14/1/1
f 11/21/3 12/23/3 2/5/3
f 2/5/4 12/23/4 11/21/4
f 11/21/3 7/22/3 15/28/3
f 15/28/4 7/22/4 11/21/4
f 12/29/5 13/30/5 8/31/5
f 8/31/6 13/30/6 12/29/6
f 6/1/2 8/24/2 13/27/2
f 13/27/1 8/24/1 6/1/1
f 16/32/7 9/19/7 13/25/7
f 13/25/8 9/19/8 16/32/8
f 10/26/7 9/19/7 17/33/7
f 17/33/8 9/19/8 10/26/8
f 7/24/2 14/1/2 18/3/2
f 18/3/1 14/1/1 7/24/1
f 10/26/7 19/34/7 14/35/7
f 14/35/8 19/34/8 10/26/8
f 20/3/3 12/23/3 11/21/3
f 11/21/4 12/23/4 20/3/4
f 15/28/3 7/22/3 21/36/3
f 21/36/4 7/22/4 15/28/4
f 11/21/3 15/28/3 22/37/3
f 22/37/4 15/28/4 11/21/4
f 13/30/5 12/29/5 16/38/5
f 16/38/6 12/29/6 13/30/6
f 9/19/7 16/32/7 23/39/7
f 23/39/8 16/32/8 9/19/8
f 22/40/1 17/41/1 9/42/1
f 9/42/2 17/41/2 22/40/2
f 19/34/7 10/26/7 17/33/7
f 17/33/8 10/26/8 19/34/8
f 19/43/5 18/44/5 14/45/5
f 14/45/6 18/44/6 19/43/6
f 18/46/3 21/36/3 7/22/3
f 7/22/4 21/36/4 18/46/4
f 12/23/3 20/3/3 24/47/3
f 24/47/4 20/3/4 12/23/4
f 11/48/2 25/1/2 20/3/2
f 20/3/1 25/1/1 11/48/1
f 21/49/6 17/50/6 15/51/6
f 15/51/5 17/50/5 21/49/5
f 17/41/1 22/40/1 15/52/1
f 15/52/2 22/40/2 17/41/2
f 9/53/6 11/54/6 22/55/6
f 22/55/5 11/54/5 9/53/5
f 12/2/1 26/1/1 16/4/1
f 16/4/2 26/1/2 12/2/2
f 26/56/7 23/39/7 16/32/7
f 16/32/8 23/39/8 26/56/8
f 11/54/6 9/53/6 23/57/6
f 23/57/5 9/53/5 11/54/5
f 19/34/7 17/33/7 27/58/7
f 27/58/8 17/33/8 19/34/8
f 18/44/5 19/43/5 28/59/5
f 28/59/6 19/43/6 18/44/6
f 21/36/3 18/46/3 28/60/3
f 28/60/4 18/46/4 21/36/4
f 20/3/5 26/61/5 24/62/5
f 24/62/6 26/61/6 20/3/6
f 26/1/1 12/2/1 24/3/1
f 24/3/2 12/2/2 26/1/2
f 25/1/2 11/48/2 23/63/2
f 23/63/1 11/48/1 25/1/1
f 26/61/5 20/3/5 25/1/5
f 25/1/6 20/3/6 26/61/6
f 17/50/6 21/49/6 27/64/6
f 27/64/5 21/49/5 17/50/5
f 23/39/7 26/56/7 25/65/7
f 25/65/8 26/56/8 23/39/8
f 21/52/1 19/1/1 27/41/1
f 27/41/2 19/1/2 21/52/2
f 19/1/1 21/52/1 28/3/1
f 28/3/2 21/52/2 19/1/2
