# SSTK version 0.8.0
# 14
mtllib original-14.mtl
o Cabinet_back2/Cabinet_back/mesh27/mesh27-geometry#mesh27-geometry
v -0.549863 0.348519 0.400557
v -0.176670 -0.530136 0.400557
v -0.549863 -0.530136 0.400557
v -0.176670 0.348519 0.400557
v -0.549863 -0.530136 0.421027
v -0.549863 0.348519 0.421027
v -0.176670 -0.530136 0.421027
v -0.176670 0.348519 0.421027
vt 0.777559 2.221144
vt 0 0
vt 0.777559 0
vt 0 2.221144
vt -0.777559 0.051747
vt -0.777559 0
vt 0.042651 0
vt 0.777559 0.051747
vt -0.042651 0
vt 0 0.051747
vt 0.042651 2.221144
vt -0.042651 2.221144
vt -0.777559 2.221144
vn 0 0 -1
vn 0 0 1
vn 0 -1 0
vn 0 1 0
vn -1 0 0
vn 1 0 0
usemtl material_0_0
f 1/1/1 2/2/1 3/3/1
f 2/2/1 1/1/1 4/4/1
f 3/3/2 2/2/2 1/1/2
f 4/4/2 1/1/2 2/2/2
f 2/2/3 5/5/3 3/6/3
f 3/6/4 5/5/4 2/2/4
f 5/7/5 1/4/5 3/2/5
f 3/2/6 1/4/6 5/7/6
f 6/8/4 4/2/4 1/3/4
f 1/3/3 4/2/3 6/8/3
f 4/4/6 7/9/6 2/2/6
f 2/2/5 7/9/5 4/4/5
f 5/5/3 2/2/3 7/10/3
f 7/10/4 2/2/4 5/5/4
f 1/4/5 5/7/5 6/11/5
f 6/11/6 5/7/6 1/4/6
f 4/2/4 6/8/4 8/10/4
f 8/10/3 6/8/3 4/2/3
f 7/9/6 4/4/6 8/12/6
f 8/12/5 4/4/5 7/9/5
f 7/2/2 6/13/2 5/6/2
f 5/6/1 6/13/1 7/2/1
f 6/13/2 7/2/2 8/4/2
f 8/4/1 7/2/1 6/13/1
