# SSTK version 0.8.0
# 19
mtllib original-19.mtl
o C2/C/mesh33/mesh33-geometry#mesh33-geometry
v 0.265806 0.249316 -0.422986
v 0.574438 0.249316 -0.418262
v 0.579162 0.249316 -0.422986
v 0.270530 0.249316 -0.418262
v 0.574438 0.233570 -0.418262
v 0.579162 0.249316 -0.375746
v 0.265806 0.233570 -0.422986
v 0.270530 0.249316 -0.375746
v 0.270530 0.233570 -0.418262
v 0.579162 0.233570 -0.422986
v 0.574438 0.249316 -0.375746
v 0.265806 0.233570 -0.375746
v 0.265806 0.249316 -0.375746
v 0.579162 0.233570 -0.375746
v 0.574438 0.233570 -0.375746
v 0.270530 0.233570 -0.375746
vn 0 1 0
vn 0 -1 0
vn -0.7071067811865475 0 -0.7071067811865475
vn 0.7071067811865475 0 0.7071067811865475
vn 0 0 -1
vn 0 0 1
vn -0.7071067811865475 0 0.7071067811865475
vn 0.7071067811865475 0 -0.7071067811865475
vn -1 0 0
vn 1 0 0
usemtl material_0_0
f 1//1 2//1 3//1
f 2//1 1//1 4//1
f 3//2 2//2 1//2
f 4//2 1//2 2//2
f 3//3 5//3 2//3
f 2//4 5//4 3//4
f 2//1 6//1 3//1
f 3//2 6//2 2//2
f 3//5 7//5 1//5
f 1//6 7//6 3//6
f 1//1 8//1 4//1
f 4//2 8//2 1//2
f 1//7 9//7 4//7
f 4//8 9//8 1//8
f 9//6 2//6 4//6
f 4//5 2//5 9//5
f 5//3 3//3 10//3
f 10//4 3//4 5//4
f 5//9 11//9 2//9
f 2//10 11//10 5//10
f 2//6 9//6 5//6
f 5//5 9//5 2//5
f 6//1 2//1 11//1
f 11//2 2//2 6//2
f 6//10 10//10 3//10
f 3//9 10//9 6//9
f 7//5 3//5 10//5
f 10//6 3//6 7//6
f 12//9 1//9 7//9
f 7//10 1//10 12//10
f 9//7 1//7 7//7
f 7//8 1//8 9//8
f 8//1 1//1 13//1
f 13//2 1//2 8//2
f 8//10 9//10 4//10
f 4//9 9//9 8//9
f 14//2 5//2 10//2
f 10//1 5//1 14//1
f 5//2 7//2 10//2
f 10//1 7//1 5//1
f 11//9 5//9 15//9
f 15//10 5//10 11//10
f 7//2 5//2 9//2
f 9//1 5//1 7//1
f 15//6 6//6 11//6
f 11//5 6//5 15//5
f 10//10 6//10 14//10
f 14//9 6//9 10//9
f 1//9 12//9 13//9
f 13//10 12//10 1//10
f 7//2 16//2 12//2
f 12//1 16//1 7//1
f 16//2 7//2 9//2
f 9//1 7//1 16//1
f 12//6 8//6 13//6
f 13//5 8//5 12//5
f 9//10 8//10 16//10
f 16//9 8//9 9//9
f 5//2 14//2 15//2
f 15//1 14//1 5//1
f 6//6 15//6 14//6
f 14//5 15//5 6//5
f 8//6 12//6 16//6
f 16//5 12//5 8//5
