# SSTK version 0.8.0
# 7
mtllib original-7.mtl
o Leg1/Leg/mesh11/mesh11-geometry#mesh11-geometry
v -0.536442 -0.623147 -0.180490
v -0.538245 -0.633562 -0.249774
v -0.536442 -0.623147 -0.249774
v -0.538245 -0.633562 -0.180490
v -0.607530 -0.633562 -0.249774
v -0.535151 -0.612656 -0.180490
v -0.607530 -0.633562 -0.180490
v -0.540556 -0.643876 -0.249774
v -0.609840 -0.643876 -0.249774
v -0.605727 -0.623147 -0.249774
v -0.535151 -0.612656 -0.249774
v -0.605727 -0.623147 -0.180490
v -0.609840 -0.643876 -0.180490
v -0.540556 -0.643876 -0.180490
v -0.534375 -0.602114 -0.180490
v -0.604436 -0.612656 -0.180490
v -0.543369 -0.654064 -0.249774
v -0.612653 -0.654064 -0.249774
v -0.612653 -0.654064 -0.180490
v -0.604436 -0.612656 -0.249774
v -0.534375 -0.602114 -0.249774
v -0.543369 -0.654064 -0.180490
v -0.534116 -0.591548 -0.180490
v -0.603660 -0.602114 -0.180490
v -0.603660 -0.602114 -0.249774
v -0.546677 -0.664103 -0.249774
v -0.615962 -0.664103 -0.249774
v -0.615962 -0.664103 -0.180490
v -0.534116 -0.591548 -0.249774
v -0.546677 -0.664103 -0.180490
v -0.534116 -0.550607 -0.249774
v -0.603401 -0.591548 -0.180490
v -0.603401 -0.591548 -0.249774
v -0.550473 -0.673968 -0.249774
v -0.619758 -0.673968 -0.249774
v -0.619758 -0.673968 -0.180490
v -0.534116 -0.550607 -0.180490
v -0.554587 -0.550607 -0.249774
v -0.554587 -0.550607 -0.180490
v -0.550473 -0.673968 -0.180490
v -0.603401 0.428826 -0.180490
v -0.603401 0.428826 -0.249774
v -0.554748 -0.683635 -0.249774
v -0.624032 -0.683635 -0.249774
v -0.624032 -0.683635 -0.180490
v -0.554587 0.368990 -0.180490
v -0.554748 -0.683635 -0.180490
v -0.554587 0.368990 -0.249774
v -0.534116 0.428826 -0.180490
v -0.587654 0.428826 -0.215132
v -0.559490 -0.693081 -0.249774
v -0.628775 -0.693081 -0.249774
v -0.628775 -0.693081 -0.180490
v -0.534116 0.368990 -0.249774
v -0.534116 0.368990 -0.180490
v -0.559311 0.428826 -0.198768
v -0.587011 0.428826 -0.210241
v -0.587011 0.428826 -0.220022
v -0.559490 -0.693081 -0.180490
v -0.534116 0.428826 -0.249774
v -0.555397 0.428826 -0.201771
v -0.563868 0.428826 -0.196880
v -0.585123 0.428826 -0.205684
v -0.587654 0.441423 -0.215132
v -0.585123 0.428826 -0.224580
v -0.587011 0.441423 -0.220022
v -0.564690 -0.702284 -0.249774
v -0.633974 -0.702284 -0.249774
v -0.633974 -0.702284 -0.180490
v -0.559311 0.428826 -0.231496
v -0.552394 0.428826 -0.205684
v -0.555397 0.441423 -0.201771
v -0.559311 0.441423 -0.198768
v -0.568759 0.428826 -0.196236
v -0.582120 0.428826 -0.201771
v -0.587011 0.441423 -0.210241
v -0.582120 0.428826 -0.228493
v -0.585123 0.441423 -0.224580
v -0.564690 -0.702284 -0.180490
v -0.555397 0.428826 -0.228493
v -0.563868 0.428826 -0.233384
v -0.552394 0.428826 -0.224580
v -0.550507 0.428826 -0.210241
v -0.563868 0.441423 -0.196880
v -0.573649 0.428826 -0.196880
v -0.578206 0.428826 -0.198768
v -0.585123 0.441423 -0.205684
v -0.578206 0.428826 -0.231496
v -0.582120 0.441423 -0.228493
v -0.570333 -0.711221 -0.249774
v -0.639618 -0.711221 -0.180490
v -0.559311 0.441423 -0.231496
v -0.568759 0.428826 -0.234028
v -0.563868 0.441423 -0.233384
v -0.550507 0.428826 -0.220022
v -0.549863 0.428826 -0.215132
v -0.552394 0.441423 -0.205684
v -0.568759 0.441423 -0.196236
v -0.578206 0.441423 -0.198768
v -0.582120 0.441423 -0.201771
v -0.573649 0.428826 -0.233384
v -0.570333 -0.711221 -0.180490
v -0.639618 -0.711221 -0.249774
v -0.552394 0.441423 -0.224580
v -0.555397 0.441423 -0.228493
v -0.568759 0.441423 -0.234028
v -0.550507 0.441423 -0.220022
v -0.550507 0.441423 -0.210241
v -0.573649 0.441423 -0.196880
v -0.578206 0.441423 -0.231496
v -0.573649 0.441423 -0.233384
v -0.549863 0.441423 -0.215132
vt -0.024059 0.029998
vt 0 0.026328
vt 0 0.029998
vt -0.024059 0.026328
vt 0.001434 0.026968
vt 0.025493 0.026968
vt 0.000808 0.030584
vt 0 0.030257
vt -0.024059 0.033927
vt -0.024059 0.030257
vt -0.025493 0.026968
vt -0.001434 0.026968
vt -0.000808 0.030584
vt -0.024059 0.026002
vt 0 0.022331
vt 0 0.026002
vt 0.026296 0.023386
vt 0.024867 0.030584
vt 0 0.033927
vt -0.024867 0.030584
vt -0.000359 0.034227
vt -0.026296 0.023386
vt -0.024059 0.022331
vt 0.002236 0.023386
vt 0.024059 0.017072
vt 0 0.020742
vt 0 0.017072
vt 0.024059 0.022224
vt 0 0.025894
vt 0 0.022224
vt 0.000359 0.034227
vt 0 0.034109
vt -0.024059 0.037779
vt -0.024059 0.034109
vt -0.024419 0.034227
vt -0.002236 0.023386
vt 0.024059 0.020742
vt 0.024059 0.025894
vt -0.024059 0.021948
vt 0 0.018277
vt 0 0.021948
vt 0.027273 0.019848
vt 0 0.015545
vt 0.024059 0.011874
vt 0.024059 0.015545
vt 0.024419 0.034227
vt 0 0.037779
vt -0.00009 0.037888
vt 0 0.030989
vt 0.024059 0.027318
vt 0.024059 0.030989
vt -0.027273 0.019848
vt 0 0.027318
vt -0.024059 0.018277
vt 0.003213 0.019848
vt 0 0.011874
vt 0.00009 0.037888
vt 0 0.037874
vt -0.024059 0.041545
vt -0.024059 0.037874
vt -0.024149 0.037888
vt 0.024059 0.032343
vt 0 0.036013
vt 0 0.032343
vt -0.003213 0.019848
vt -0.024059 0.017845
vt 0 0.014174
vt 0 0.017845
vt 0.028421 0.016362
vt 0 0.010314
vt 0.024059 0.006644
vt 0.024059 0.010314
vt 0.024149 0.037888
vt 0 0.041545
vt 0 0.041557
vt 0.024059 0.036013
vt -0.028421 0.016362
vt -0.024059 0.014174
vt 0.004362 0.016362
vt 0 0.006644
vt 0 0.055774
vt -0.024059 0.041557
vt 0.024059 0.037285
vt 0 0.040956
vt 0 0.037285
vt -0.004362 0.016362
vt -0.024059 0.013704
vt 0 0.010033
vt 0 0.013704
vt 0.02974 0.012936
vt 0 0.005063
vt 0.024059 0.001393
vt 0.024059 0.005063
vt 0.024059 0.041557
vt -0.024059 0.055774
vt 0.007108 0.055774
vt -0.007108 0.055774
vt 0.024059 0.040956
vt -0.02974 0.012936
vt -0.024059 0.010033
vt 0.00568 0.012936
vt 0 0.001393
vt 0.007108 0
vt 0 0.024059
vt 0 0
vt -0.024059 0.395888
vt 0 0.395888
vt -0.00568 0.012936
vt -0.024059 0.009534
vt 0 0.005864
vt 0 0.009534
vt 0.031224 0.009579
vt 0 -0.000195
vt 0.024059 -0.003866
vt 0.024059 -0.000195
vt 0.024059 0.395888
vt 0.007108 0.024059
vt -0.007108 0.375109
vt -0.031224 0.009579
vt -0.024059 0.005864
vt 0.007164 0.009579
vt 0 -0.003866
vt 0.007108 0.375109
vt -0.024059 0.375109
vt 0.024059 0.024059
vt 0.018591 0.01203
vt 0.024059 0
vt -0.007164 0.009579
vt -0.024059 0.005346
vt 0 0.001676
vt 0 0.005346
vt 0.032871 0.006299
vt 0 -0.005449
vt 0.024059 -0.009119
vt 0.024059 -0.005449
vt 0 0.375109
vt 0.008749 0.017712
vt 0.018368 0.013728
vt 0.018368 0.010331
vt -0.032871 0.006299
vt -0.024059 0.001676
vt 0.008811 0.006299
vt 0 -0.009119
vt -0.007108 0.024059
vt -0.007108 0
vt 0.00739 0.01667
vt 0.010331 0.018368
vt 0.017712 0.015311
vt 0.011213 0.395888
vt 0.0095 0.400262
vt 0.0095 0.395888
vt 0.017712 0.008749
vt 0.014353 0.395888
vt 0.012641 0.400262
vt 0.012641 0.395888
vt -0.008811 0.006299
vt -0.024059 0.00115
vt 0 -0.00252
vt 0 0.00115
vt 0.034676 0.003103
vt 0 -0.010685
vt 0.024059 -0.014355
vt 0.024059 -0.010685
vt 0.008749 0.006347
vt 0.006347 0.015311
vt -0.016011 0.400262
vt -0.017724 0.395888
vt -0.016011 0.395888
vt -0.014861 0.400262
vt -0.016574 0.395888
vt -0.014861 0.395888
vt 0.01203 0.018591
vt 0.01667 0.01667
vt 0.007367 0.395888
vt 0.005654 0.400262
vt 0.005654 0.395888
vt 0.011213 0.400262
vt 0.014353 0.400262
vt 0.01667 0.00739
vt 0.016574 0.395888
vt 0.014861 0.400262
vt 0.014861 0.395888
vt 0.016574 0.400262
vt -0.034676 0.003103
vt -0.024059 -0.00252
vt 0.010617 0.003103
vt 0 -0.014355
vt 0.00739 0.00739
vt 0.010331 0.005692
vt 0.006347 0.008749
vt 0.005692 0.013728
vt -0.017724 0.400262
vt -0.016574 0.400262
vt -0.012641 0.400262
vt -0.014353 0.395888
vt -0.012641 0.395888
vt 0.013728 0.018368
vt 0.015311 0.017712
vt 0.003077 0.395888
vt 0.001364 0.400262
vt 0.001364 0.395888
vt 0.007367 0.400262
vt 0.015311 0.006347
vt 0.017724 0.395888
vt 0.016011 0.400262
vt 0.016011 0.395888
vt 0.017724 0.400262
vt -0.010617 0.003103
vt -0.024059 -0.003045
vt 0 -0.006715
vt 0 -0.003045
vt 0.012577 0
vt 0 -0.015891
vt 0.024059 -0.019561
vt 0.024059 -0.015891
vt 0.003077 0.400262
vt 0.01203 0.005468
vt 0.005692 0.010331
vt 0.005468 0.01203
vt -0.014353 0.400262
vt -0.0095 0.400262
vt -0.011213 0.395888
vt -0.0095 0.395888
vt -0.001364 0.400262
vt -0.003077 0.395888
vt -0.001364 0.395888
vt 0.013728 0.005692
vt -0.012577 0
vt -0.024059 -0.006715
vt 0.036636 0
vt 0 -0.019561
vt -0.036636 0
vt -0.003077 0.400262
vt -0.005654 0.395888
vt -0.007367 0.400262
vt -0.007367 0.395888
vt -0.011213 0.400262
vt -0.005654 0.400262
vt -0.036636 0.024059
vt -0.012577 0.024059
vn 0.9892244508450584 -0.14640691872412492 0
vn 0.9808703672653986 -0.19466207288694426 0
vn -0.9892244508450584 0.14640691872412492 0
vn -0.9808703672653986 0.19466207288694426 0
vn 0 0 -1
vn 0 0 1
vn 0.9952060883563909 -0.09780000868288075 0
vn -0.9952060883563909 0.09780000868288075 0
vn 0.970163672910828 -0.24245091825805032 0
vn -0.970163672910828 0.24245091825805032 0
vn 0.998800789611625 -0.04895898968723054 0
vn -0.998800789611625 0.04895898968723054 0
vn 0.9571301943625341 -0.28965805882028867 0
vn -0.9571301943625341 0.28965805882028867 0
vn 0.9997001483710084 -0.024487003634251155 0
vn -0.9997001483710084 0.024487003634251155 0
vn 0.9418012860717131 -0.33617010211151593 0
vn -0.9418012860717131 0.33617010211151593 0
vn 1 0 0
vn -1 0 0
vn 0.9242134857921516 -0.3818762007246855 0
vn -0.9242134857921516 0.3818762007246855 0
vn 0 1 0
vn 0 -1 0
vn 0.9044088335119153 -0.42666692145702695 0
vn -0.9044088335119153 0.42666692145702695 0
vn 0.8824351422569396 -0.4704340758384483 0
vn -0.8824351422569396 0.4704340758384483 0
vn -0.965925849201117 0 0.2588189595935754
vn 0.965925849201117 0 -0.2588189595935754
vn -0.965925849201117 0 -0.2588189595935754
vn 0.965925849201117 0 0.2588189595935754
vn 0.8583454222163546 -0.5130722523779941 0
vn -0.8583454222163546 0.5130722523779941 0
vn 0.7071067811865475 0 0.7071067811865475
vn 0.5000001748438417 0 0.8660253028382762
vn -0.7071067811865475 0 -0.7071067811865475
vn -0.5000001748438417 0 -0.8660253028382762
vn 0.2588189595935754 0 0.965925849201117
vn -0.2588189595935754 0 -0.965925849201117
vn -0.8660253028382762 0 0.5000001748438417
vn 0.8660253028382762 0 -0.5000001748438417
vn -0.8660253028382762 0 -0.5000001748438417
vn 0.8660253028382762 0 0.5000001748438417
vn -0.7071067811865475 0 0.7071067811865475
vn 0.7071067811865475 0 -0.7071067811865475
vn 0.8455244734100585 -0.5339366674659488 0
vn -0.8455244734100585 0.5339366674659488 0
vn 0.5000001748438417 0 -0.8660253028382762
vn -0.5000001748438417 0 0.8660253028382762
vn 0.2588189595935754 0 -0.965925849201117
vn -0.2588189595935754 0 0.965925849201117
usemtl material_0_0
f 1/1/1 2/2/2 3/3/1
f 2/2/2 1/1/1 4/4/2
f 3/3/3 2/2/4 1/1/3
f 4/4/4 1/1/3 2/2/4
f 2/5/5 5/6/5 3/7/5
f 3/7/6 5/6/6 2/5/6
f 3/8/1 6/9/7 1/10/1
f 1/10/3 6/9/8 3/8/3
f 7/11/6 4/12/6 1/13/6
f 1/13/5 4/12/5 7/11/5
f 4/14/2 8/15/9 2/16/2
f 2/16/4 8/15/10 4/14/4
f 2/5/5 9/17/5 5/6/5
f 5/6/6 9/17/6 2/5/6
f 3/7/5 5/6/5 10/18/5
f 10/18/6 5/6/6 3/7/6
f 6/9/7 3/8/1 11/19/7
f 11/19/8 3/8/3 6/9/8
f 12/20/6 1/13/6 6/21/6
f 6/21/5 1/13/5 12/20/5
f 13/22/6 4/12/6 7/11/6
f 7/11/5 4/12/5 13/22/5
f 7/11/6 1/13/6 12/20/6
f 12/20/5 1/13/5 7/11/5
f 8/15/9 4/14/2 14/23/9
f 14/23/10 4/14/4 8/15/10
f 8/24/5 9/17/5 2/5/5
f 2/5/6 9/17/6 8/24/6
f 13/25/10 5/26/4 9/27/10
f 9/27/9 5/26/2 13/25/9
f 7/28/4 10/29/3 5/30/4
f 5/30/2 10/29/1 7/28/2
f 3/7/5 10/18/5 11/31/5
f 11/31/6 10/18/6 3/7/6
f 11/32/7 15/33/11 6/34/7
f 6/34/8 15/33/12 11/32/8
f 12/20/6 6/21/6 16/35/6
f 16/35/5 6/21/5 12/20/5
f 13/22/6 14/36/6 4/12/6
f 4/12/5 14/36/5 13/22/5
f 5/26/4 13/25/10 7/37/4
f 7/37/2 13/25/9 5/26/2
f 10/29/3 7/28/4 12/38/3
f 12/38/1 7/28/2 10/29/1
f 14/39/9 17/40/13 8/41/9
f 8/41/10 17/40/14 14/39/10
f 8/24/5 18/42/5 9/17/5
f 9/17/6 18/42/6 8/24/6
f 9/43/10 19/44/14 13/45/10
f 13/45/9 19/44/13 9/43/9
f 11/31/5 10/18/5 20/46/5
f 20/46/6 10/18/6 11/31/6
f 15/33/11 11/32/7 21/47/11
f 21/47/12 11/32/8 15/33/12
f 16/35/6 6/21/6 15/48/6
f 15/48/5 6/21/5 16/35/5
f 20/49/8 12/50/3 16/51/8
f 16/51/7 12/50/1 20/49/7
f 19/52/6 14/36/6 13/22/6
f 13/22/5 14/36/5 19/52/5
f 12/50/3 20/49/8 10/53/3
f 10/53/1 20/49/7 12/50/1
f 17/40/13 14/39/9 22/54/13
f 22/54/14 14/39/10 17/40/14
f 17/55/5 18/42/5 8/24/5
f 8/24/6 18/42/6 17/55/6
f 19/44/14 9/43/10 18/56/14
f 18/56/13 9/43/9 19/44/13
f 11/31/5 20/46/5 21/57/5
f 21/57/6 20/46/6 11/31/6
f 21/58/11 23/59/15 15/60/11
f 15/60/12 23/59/16 21/58/12
f 16/35/6 15/48/6 24/61/6
f 24/61/5 15/48/5 16/35/5
f 16/62/8 25/63/12 20/64/8
f 20/64/7 25/63/11 16/62/7
f 19/52/6 22/65/6 14/36/6
f 14/36/5 22/65/5 19/52/5
f 22/66/13 26/67/17 17/68/13
f 17/68/14 26/67/18 22/66/14
f 17/55/5 27/69/5 18/42/5
f 18/42/6 27/69/6 17/55/6
f 18/70/14 28/71/18 19/72/14
f 19/72/13 28/71/17 18/70/13
f 21/57/5 20/46/5 25/73/5
f 25/73/6 20/46/6 21/57/6
f 23/59/15 21/58/11 29/74/15
f 29/74/16 21/58/12 23/59/16
f 24/61/6 15/48/6 23/75/6
f 23/75/5 15/48/5 24/61/5
f 25/63/12 16/62/8 24/76/12
f 24/76/11 16/62/7 25/63/11
f 28/77/6 22/65/6 19/52/6
f 19/52/5 22/65/5 28/77/5
f 26/67/17 22/66/13 30/78/17
f 30/78/18 22/66/14 26/67/18
f 26/79/5 27/69/5 17/55/5
f 17/55/6 27/69/6 26/79/6
f 28/71/18 18/70/14 27/80/18
f 27/80/17 18/70/13 28/71/17
f 21/57/5 25/73/5 29/75/5
f 29/75/6 25/73/6 21/57/6
f 31/81/19 23/82/19 29/75/19
f 29/75/20 23/82/20 31/81/20
f 24/61/6 23/75/6 32/82/6
f 32/82/5 23/75/5 24/61/5
f 24/83/12 33/84/16 25/85/12
f 25/85/11 33/84/15 24/83/11
f 28/77/6 30/86/6 22/65/6
f 22/65/5 30/86/5 28/77/5
f 30/87/17 34/88/21 26/89/17
f 26/89/18 34/88/22 30/87/18
f 26/79/5 35/90/5 27/69/5
f 27/69/6 35/90/6 26/79/6
f 27/91/18 36/92/22 28/93/18
f 28/93/17 36/92/21 27/91/17
f 29/75/5 25/73/5 33/94/5
f 33/94/6 25/73/6 29/75/6
f 23/82/19 31/81/19 37/95/19
f 37/95/20 31/81/20 23/82/20
f 31/81/5 29/75/5 38/96/5
f 38/96/6 29/75/6 31/81/6
f 32/82/6 23/75/6 39/97/6
f 39/97/5 23/75/5 32/82/5
f 33/84/16 24/83/12 32/98/16
f 32/98/15 24/83/11 33/84/15
f 36/99/6 30/86/6 28/77/6
f 28/77/5 30/86/5 36/99/5
f 34/88/21 30/87/17 40/100/21
f 40/100/22 30/87/18 34/88/22
f 34/101/5 35/90/5 26/79/5
f 26/79/6 35/90/6 34/101/6
f 36/92/22 27/91/18 35/102/22
f 35/102/21 27/91/17 36/92/21
f 29/75/5 33/94/5 38/96/5
f 38/96/6 33/94/6 29/75/6
f 38/103/23 37/104/23 31/105/23
f 31/105/24 37/104/24 38/103/24
f 39/97/6 23/75/6 37/81/6
f 37/81/5 23/75/5 39/97/5
f 32/82/6 39/97/6 41/106/6
f 41/106/5 39/97/5 32/82/5
f 32/94/20 42/107/20 33/75/20
f 33/75/19 42/107/19 32/94/19
f 36/99/6 40/108/6 30/86/6
f 30/86/5 40/108/5 36/99/5
f 40/109/21 43/110/25 34/111/21
f 34/111/22 43/110/26 40/109/22
f 34/101/5 44/112/5 35/90/5
f 35/90/6 44/112/6 34/101/6
f 35/113/22 45/114/26 36/115/22
f 36/115/21 45/114/25 35/113/21
f 38/96/5 33/94/5 42/116/5
f 42/116/6 33/94/6 38/96/6
f 37/104/23 38/103/23 39/117/23
f 39/117/24 38/103/24 37/104/24
f 41/106/6 39/97/6 46/118/6
f 46/118/5 39/97/5 41/106/5
f 42/107/20 32/94/20 41/116/20
f 41/116/19 32/94/19 42/107/19
f 45/119/6 40/108/6 36/99/6
f 36/99/5 40/108/5 45/119/5
f 43/110/25 40/109/21 47/120/25
f 47/120/26 40/109/22 43/110/26
f 43/121/5 44/112/5 34/101/5
f 34/101/6 44/112/6 43/121/6
f 45/114/26 35/113/22 44/122/26
f 44/122/25 35/113/21 45/114/25
f 38/96/5 42/116/5 48/123/5
f 48/123/6 42/116/6 38/96/6
f 38/81/19 46/124/19 39/95/19
f 39/95/20 46/124/20 38/81/20
f 41/106/6 46/118/6 49/107/6
f 49/107/5 46/118/5 41/106/5
f 41/125/23 50/126/23 42/127/23
f 42/127/24 50/126/24 41/125/24
f 45/119/6 47/128/6 40/108/6
f 40/108/5 47/128/5 45/119/5
f 47/129/25 51/130/27 43/131/25
f 43/131/26 51/130/28 47/129/26
f 43/121/5 52/132/5 44/112/5
f 44/112/6 52/132/6 43/121/6
f 44/133/26 53/134/28 45/135/26
f 45/135/25 53/134/27 44/133/25
f 48/123/5 42/116/5 54/136/5
f 54/136/6 42/116/6 48/123/6
f 46/124/19 38/81/19 48/136/19
f 48/136/20 38/81/20 46/124/20
f 49/107/6 46/118/6 55/136/6
f 55/136/5 46/118/5 49/107/5
f 49/104/23 56/137/23 41/125/23
f 41/125/24 56/137/24 49/104/24
f 41/125/23 57/138/23 50/126/23
f 50/126/24 57/138/24 41/125/24
f 58/139/23 42/127/23 50/126/23
f 50/126/24 42/127/24 58/139/24
f 53/140/6 47/128/6 45/119/6
f 45/119/5 47/128/5 53/140/5
f 51/130/27 47/129/25 59/141/27
f 59/141/28 47/129/26 51/130/28
f 51/142/5 52/132/5 43/121/5
f 43/121/6 52/132/6 51/142/6
f 53/134/28 44/133/26 52/143/28
f 52/143/27 44/133/25 53/134/27
f 54/136/5 42/116/5 60/107/5
f 60/107/6 42/116/6 54/136/6
f 54/105/24 46/144/24 48/145/24
f 48/145/23 46/144/23 54/105/23
f 46/144/24 54/105/24 55/104/24
f 55/104/23 54/105/23 46/144/23
f 54/136/19 49/106/19 55/124/19
f 55/124/20 49/106/20 54/136/20
f 56/137/23 49/104/23 61/146/23
f 61/146/24 49/104/24 56/137/24
f 41/125/23 56/137/23 62/147/23
f 62/147/24 56/137/24 41/125/24
f 41/125/23 63/148/23 57/138/23
f 57/138/24 63/148/24 41/125/24
f 57/149/29 64/150/20 50/151/20
f 50/151/19 64/150/19 57/149/30
f 65/152/23 42/127/23 58/139/23
f 58/139/24 42/127/24 65/152/24
f 50/153/20 66/154/31 58/155/31
f 58/155/32 66/154/32 50/153/19
f 53/140/6 59/156/6 47/128/6
f 47/128/5 59/156/5 53/140/5
f 59/157/27 67/158/33 51/159/27
f 51/159/28 67/158/34 59/157/28
f 51/142/5 68/160/5 52/132/5
f 52/132/6 68/160/6 51/142/6
f 52/161/28 69/162/34 53/163/28
f 53/163/27 69/162/33 52/161/27
f 70/164/23 60/105/23 42/127/23
f 42/127/24 60/105/24 70/164/24
f 49/106/19 54/136/19 60/107/19
f 60/107/20 54/136/20 49/106/20
f 61/146/23 49/104/23 71/165/23
f 71/165/24 49/104/24 61/146/24
f 72/166/35 56/167/36 61/168/35
f 61/168/37 56/167/38 72/166/37
f 73/169/36 62/170/39 56/171/36
f 56/171/38 62/170/40 73/169/38
f 41/125/23 62/147/23 74/172/23
f 74/172/24 62/147/24 41/125/24
f 41/125/23 75/173/23 63/148/23
f 63/148/24 75/173/24 41/125/24
f 63/174/41 76/175/29 57/176/29
f 57/176/30 76/175/30 63/174/42
f 64/150/20 57/149/29 76/177/29
f 76/177/30 57/149/30 64/150/19
f 66/154/31 50/153/20 64/178/20
f 64/178/19 50/153/19 66/154/32
f 77/179/23 42/127/23 65/152/23
f 65/152/24 42/127/24 77/179/24
f 58/180/31 78/181/43 65/182/43
f 65/182/44 78/181/44 58/180/32
f 78/181/43 58/180/31 66/183/31
f 66/183/32 58/180/32 78/181/44
f 69/184/6 59/156/6 53/140/6
f 53/140/5 59/156/5 69/184/5
f 67/158/33 59/157/27 79/185/33
f 79/185/34 59/157/28 67/158/34
f 67/186/5 68/160/5 51/142/5
f 51/142/6 68/160/6 67/186/6
f 69/162/34 52/161/28 68/187/34
f 68/187/33 52/161/27 69/162/33
f 80/188/23 60/105/23 70/164/23
f 70/164/24 60/105/24 80/188/24
f 70/164/23 42/127/23 81/189/23
f 81/189/24 42/127/24 70/164/24
f 60/105/23 82/190/23 49/104/23
f 49/104/24 82/190/24 60/105/24
f 71/165/23 49/104/23 83/191/23
f 83/191/24 49/104/24 71/165/24
f 71/168/44 72/192/35 61/167/35
f 61/167/37 72/192/37 71/168/43
f 56/167/36 72/166/35 73/192/36
f 73/192/38 72/166/37 56/167/38
f 62/170/39 73/169/36 84/193/39
f 84/193/40 73/169/38 62/170/40
f 84/194/39 74/195/6 62/196/39
f 62/196/40 74/195/5 84/194/40
f 41/125/23 74/172/23 85/197/23
f 85/197/24 74/172/24 41/125/24
f 41/125/23 86/198/23 75/173/23
f 75/173/24 86/198/24 41/125/24
f 75/199/45 87/200/41 63/201/41
f 63/201/42 87/200/42 75/199/46
f 76/175/29 63/174/41 87/202/41
f 87/202/42 63/174/42 76/175/30
f 76/138/23 66/139/23 64/126/23
f 64/126/24 66/139/24 76/138/24
f 88/203/23 42/127/23 77/179/23
f 77/179/24 42/127/24 88/203/24
f 65/204/43 89/205/37 77/206/37
f 77/206/35 89/205/35 65/204/44
f 89/205/37 65/204/43 78/207/43
f 78/207/44 65/204/44 89/205/35
f 87/148/23 78/152/23 66/139/23
f 66/139/24 78/152/24 87/148/24
f 69/184/6 79/208/6 59/156/6
f 59/156/5 79/208/5 69/184/5
f 79/209/33 90/210/47 67/211/33
f 67/211/34 90/210/48 79/209/34
f 90/212/5 68/160/5 67/186/5
f 67/186/6 68/160/6 90/212/6
f 68/213/34 91/214/48 69/215/34
f 69/215/33 91/214/47 68/213/33
f 82/190/23 60/105/23 80/188/23
f 80/188/24 60/105/24 82/190/24
f 92/216/49 80/201/46 70/199/49
f 70/199/50 80/201/45 92/216/50
f 81/189/23 42/127/23 93/217/23
f 93/217/24 42/127/24 81/189/24
f 94/202/51 70/176/49 81/174/51
f 81/174/52 70/176/50 94/202/52
f 49/104/23 82/190/23 95/218/23
f 95/218/24 82/190/24 49/104/24
f 83/191/23 49/104/23 96/219/23
f 96/219/24 49/104/24 83/191/24
f 83/171/32 97/193/44 71/170/44
f 71/170/43 97/193/43 83/171/31
f 72/192/35 71/168/44 97/166/44
f 97/166/43 71/168/43 72/192/37
f 72/146/23 92/164/23 73/137/23
f 73/137/24 92/164/24 72/146/24
f 73/137/23 94/189/23 84/147/23
f 84/147/24 94/189/24 73/137/24
f 74/195/6 84/194/39 98/220/6
f 98/220/5 84/194/40 74/195/5
f 98/221/6 85/222/52 74/223/6
f 74/223/5 85/222/51 98/221/5
f 41/125/23 85/197/23 86/198/23
f 86/198/24 85/197/24 41/125/24
f 99/224/50 75/225/45 86/226/50
f 86/226/49 75/225/46 99/224/49
f 87/200/41 75/199/45 100/216/45
f 100/216/46 75/199/46 87/200/42
f 87/148/23 66/139/23 76/138/23
f 76/138/24 66/139/24 87/148/24
f 101/227/23 42/127/23 88/203/23
f 88/203/24 42/127/24 101/227/24
f 89/207/37 88/206/38 77/204/37
f 77/204/35 88/206/36 89/207/35
f 100/173/23 89/179/23 78/152/23
f 78/152/24 89/179/24 100/173/24
f 100/173/23 78/152/23 87/148/23
f 87/148/24 78/152/24 100/173/24
f 69/184/6 102/228/6 79/208/6
f 79/208/5 102/228/5 69/184/5
f 90/210/47 79/209/33 102/229/47
f 102/229/48 79/209/34 90/210/48
f 68/160/5 90/212/5 103/230/5
f 103/230/6 90/212/6 68/160/6
f 91/214/48 68/213/34 103/231/48
f 103/231/47 68/213/33 91/214/47
f 102/228/6 69/184/6 91/232/6
f 91/232/5 69/184/5 102/228/5
f 80/226/46 104/233/42 82/225/42
f 82/225/41 104/233/41 80/226/45
f 80/201/46 92/216/49 105/200/46
f 105/200/45 92/216/50 80/201/45
f 70/176/49 94/202/51 92/175/49
f 92/175/50 94/202/52 70/176/50
f 93/217/23 42/127/23 101/227/23
f 101/227/24 42/127/24 93/217/24
f 106/177/5 81/151/51 93/149/5
f 93/149/6 81/151/52 106/177/6
f 81/151/51 106/177/5 94/150/51
f 94/150/52 106/177/6 81/151/52
f 82/234/42 107/235/30 95/236/30
f 95/236/29 107/235/29 82/234/41
f 49/104/23 95/218/23 96/219/23
f 96/219/24 95/218/24 49/104/24
f 96/196/19 108/220/32 83/195/32
f 83/195/31 108/220/31 96/196/20
f 97/193/44 83/171/32 108/169/32
f 108/169/31 83/171/31 97/193/43
f 97/165/23 105/188/23 72/146/23
f 72/146/24 105/188/24 97/165/24
f 72/146/23 105/188/23 92/164/23
f 92/164/24 105/188/24 72/146/24
f 73/137/23 92/164/23 94/189/23
f 94/189/24 92/164/24 73/137/24
f 84/147/23 94/189/23 106/217/23
f 106/217/24 94/189/24 84/147/24
f 84/147/23 106/217/23 98/172/23
f 98/172/24 106/217/24 84/147/24
f 85/222/52 98/221/6 109/237/52
f 109/237/51 98/221/5 85/222/51
f 109/238/52 86/236/50 85/234/52
f 85/234/51 86/236/49 109/238/51
f 75/225/45 99/224/50 100/233/45
f 100/233/46 99/224/49 75/225/46
f 86/236/50 109/238/52 99/235/50
f 99/235/49 109/238/51 86/236/49
f 110/183/38 101/182/40 88/180/38
f 88/180/36 101/182/39 110/183/36
f 88/206/38 89/207/37 110/205/38
f 110/205/36 89/207/35 88/206/36
f 99/198/23 89/179/23 100/173/23
f 100/173/24 89/179/24 99/198/24
f 91/239/24 90/228/24 102/240/24
f 102/240/23 90/228/23 91/239/23
f 90/228/24 91/239/24 103/232/24
f 103/232/23 91/239/23 90/228/23
f 104/233/42 80/226/46 105/224/46
f 105/224/45 80/226/45 104/233/41
f 107/235/30 82/234/42 104/238/42
f 104/238/41 82/234/41 107/235/29
f 111/178/40 93/155/5 101/153/40
f 101/153/39 93/155/6 111/178/39
f 93/155/5 111/178/40 106/154/5
f 106/154/6 111/178/39 93/155/6
f 112/237/19 95/223/30 107/221/30
f 107/221/29 95/223/29 112/237/20
f 95/223/30 112/237/19 96/222/19
f 96/222/20 112/237/20 95/223/29
f 108/220/32 96/196/19 112/194/19
f 112/194/20 96/196/20 108/220/31
f 108/191/23 104/190/23 97/165/23
f 97/165/24 104/190/24 108/191/24
f 97/165/23 104/190/23 105/188/23
f 105/188/24 104/190/24 97/165/24
f 98/172/23 106/217/23 111/227/23
f 111/227/24 106/217/24 98/172/24
f 98/172/23 111/227/23 109/197/23
f 109/197/24 111/227/24 98/172/24
f 109/197/23 110/203/23 99/198/23
f 99/198/24 110/203/24 109/197/24
f 101/182/40 110/183/38 111/181/40
f 111/181/39 110/183/36 101/182/39
f 99/198/23 110/203/23 89/179/23
f 89/179/24 110/203/24 99/198/24
f 108/191/23 107/218/23 104/190/23
f 104/190/24 107/218/24 108/191/24
f 107/218/23 108/191/23 112/219/23
f 112/219/24 108/191/24 107/218/24
f 109/197/23 111/227/23 110/203/23
f 110/203/24 111/227/24 109/197/24
