# SSTK version 0.8.0
# 1
mtllib original-1.mtl
o Case_Top_and_Bottom_1_1/Case_Top_and_Bottom_1/mesh1/mesh1-geometry#mesh1-geometry
v 0.610655 -0.550607 -0.369448
v 0.246911 -0.520688 -0.369448
v 0.580737 -0.520688 -0.369448
v 0.246911 -0.530136 -0.369448
v 0.246911 -0.520688 0.400557
v 0.610655 -0.550607 -0.249774
v 0.216992 -0.530136 -0.369448
v 0.246911 -0.530136 0.400557
v 0.580737 -0.520688 0.400557
v 0.594909 -0.534860 -0.249774
v 0.594909 -0.550607 -0.249774
v -0.176670 -0.530136 -0.369448
v 0.590185 -0.530136 0.400557
v 0.594909 -0.534860 -0.180490
v -0.570333 -0.550607 -0.369448
v -0.206589 -0.530136 -0.369448
v -0.176670 -0.520688 -0.369448
v 0.216992 -0.530136 0.421027
v 0.594909 -0.534860 0.301354
v 0.594909 -0.534860 0.232069
v -0.554587 -0.550607 -0.249774
v -0.176670 -0.530136 0.421027
v 0.216992 -0.520688 -0.369448
v 0.580737 -0.530136 0.400557
v 0.216992 -0.520688 0.421027
v 0.590185 -0.530136 0.421027
v 0.610655 -0.550607 0.232069
v 0.594909 -0.550607 -0.180490
v -0.554587 -0.550607 0.301354
v -0.570333 -0.550607 -0.249774
v -0.540415 -0.520688 -0.369448
v -0.206589 -0.530136 0.400557
v -0.176670 -0.520688 0.421027
v 0.594909 -0.550607 0.232069
v 0.610655 -0.550607 0.421027
v 0.610655 -0.550607 -0.180490
v -0.570333 -0.550607 0.421027
v -0.554587 -0.550607 0.232069
v -0.554587 -0.534860 -0.249774
v -0.206589 -0.520688 -0.369448
v -0.549863 -0.530136 0.421027
v 0.594909 -0.550607 0.301354
v 0.610655 -0.550607 0.301354
v -0.570333 -0.550607 0.301354
v -0.554587 -0.534860 0.301354
v -0.554587 -0.550607 -0.180490
v -0.206589 -0.520688 0.400557
v -0.549863 -0.530136 0.400557
v -0.554587 -0.534860 0.232069
v -0.570333 -0.550607 0.232069
v -0.554587 -0.534860 -0.180490
v -0.540415 -0.520688 0.400557
v -0.570333 -0.550607 -0.180490
vt 0 0.010389
vt -0.126312 0
vt -0.010389 0
vt -0.126312 0.003281
vt -0.126312 0.007108
vt -0.010389 0.274497
vt -0.126312 0.274497
vt -0.274497 -0.007346
vt -0.23294 0.007346
vt -0.274497 0.007346
vt -0.136702 0.003281
vt 0.007108 0.003281
vt 0.274497 0
vt 0.274497 0.003281
vt -0.010389 0.007108
vt 0.007108 0
vt -0.23294 -0.000387
vt 0.005468 0.23294
vt 0 0.274497
vt 0 0.23294
vt -0.273403 0.003281
vt -0.136702 0.274497
vt 0.126312 0.003281
vt 0.010389 0
vt 0.126312 0
vt -0.007108 -0.002707
vt -0.007108 -0.007346
vt -0.20888 -0.000387
vt 0.005468 0.004921
vt 0.005468 0.010389
vt 0.410105 0.274497
vt -0.283793 0.003281
vt -0.273403 0
vt -0.136702 0
vt -0.041557 -0.000387
vt -0.065617 -0.000387
vt -0.20888 0.004921
vt -0.23294 0.010389
vt -0.23294 0.004921
vt 0.404637 0.23294
vt -0.410105 0.010389
vt -0.283793 0.274497
vt -0.273403 0.274497
vt 0 0.003281
vt -0.274497 0.003281
vt 0 0
vt 0.010389 0.003281
vt 0 -0.002707
vt -0.065617 0.007346
vt -0.20888 0.010389
vt 0.404637 0.041557
vt 0.410105 0.23294
vt -0.399716 0
vt -0.283793 0.007108
vt -0.274497 0
vt -0.007108 0
vt 0.136702 0
vt 0.273403 0.003281
vt 0.136702 0.003281
vt -0.007108 0.007108
vt -0.041557 0.004921
vt -0.065617 0.010389
vt -0.065617 0.004921
vt 0 0.007346
vt -0.20888 0.007346
vt -0.005468 0.010389
vt -0.005468 0.004921
vt 0.005468 0.20888
vt 0.410105 0
vt 0.404637 0.065617
vt 0.404637 0.010389
vt 0.404637 0.004921
vt 0.410105 0.010389
vt 0.23294 0.289601
vt 0.274497 0.297334
vt 0.23294 0.297334
vt -0.283793 0
vt 0.274497 0.282642
vt -0.007108 0.003281
vt -0.402997 0
vt 0.273403 0
vt -0.041557 0.010389
vt -0.041557 0.007346
vt 0.005468 0.065617
vt 0 0.20888
vt 0 0.065617
vt 0.410105 0.041557
vt 0.041557 0.004921
vt 0.065617 0.010389
vt 0.041557 0.010389
vt 0.404637 0.20888
vt 0.20888 0.010389
vt 0.23294 0.004921
vt 0.23294 0.010389
vt -0.399716 0.274497
vt 0.007108 0.287281
vt -0.402997 0.007108
vt 0.402997 0.003281
vt 0.005468 0.041557
vt 0 0.041557
vt 0 0.297334
vt 0.041557 0.289601
vt 0.041557 0.297334
vt -0.404637 0.004921
vt -0.404637 0.010389
vt 0.065617 0.004921
vt 0.410105 0.065617
vt 0.20888 0.004921
vt -0.399716 0.007108
vt 0.007108 0.282642
vt 0 0.287281
vt 0.283793 0
vt 0.283793 0.003281
vt 0.20888 0.289601
vt 0.065617 0.289601
vt 0.410105 0.20888
vt 0.399716 0
vt 0.20888 0.297334
vt 0.065617 0.297334
vn 0 0 -1
vn 0 0 1
vn 0 1 0
vn 0 -1 0
vn 0.7071067811865475 0.7071067811865475 0
vn -0.7071067811865475 -0.7071067811865475 0
vn -1 0 0
vn 1 0 0
vn -0.7071067811865475 0.7071067811865475 0
vn 0.7071067811865475 -0.7071067811865475 0
usemtl material_0_0
f 1/1/1 2/2/1 3/3/1
f 2/2/1 1/1/1 4/4/1
f 3/3/2 2/2/2 1/1/2
f 4/4/2 1/1/2 2/2/2
f 5/5/3 3/6/3 2/7/3
f 2/7/4 3/6/4 5/5/4
f 3/8/5 6/9/5 1/10/5
f 1/10/6 6/9/6 3/8/6
f 4/4/1 1/1/1 7/11/1
f 7/11/2 1/1/2 4/4/2
f 8/12/7 2/13/7 4/14/7
f 4/14/8 2/13/8 8/12/8
f 3/6/3 5/5/3 9/15/3
f 9/15/4 5/5/4 3/6/4
f 2/13/7 8/12/7 5/16/7
f 5/16/8 8/12/8 2/13/8
f 6/9/5 3/8/5 10/17/5
f 10/17/6 3/8/6 6/9/6
f 11/18/4 1/19/4 6/20/4
f 6/20/3 1/19/3 11/18/3
f 7/11/1 1/1/1 12/21/1
f 12/21/2 1/1/2 7/11/2
f 7/22/3 8/5/3 4/7/3
f 4/7/4 8/5/4 7/22/4
f 8/23/2 9/24/2 5/25/2
f 5/25/1 9/24/1 8/23/1
f 13/26/5 3/8/5 9/27/5
f 9/27/6 3/8/6 13/26/6
f 10/17/5 3/8/5 14/28/5
f 14/28/6 3/8/6 10/17/6
f 6/1/2 10/29/2 11/30/2
f 11/30/1 10/29/1 6/1/1
f 1/19/4 11/18/4 15/31/4
f 15/31/3 11/18/3 1/19/3
f 12/21/1 1/1/1 16/32/1
f 16/32/2 1/1/2 12/21/2
f 17/33/1 7/11/1 12/21/1
f 12/21/2 7/11/2 17/33/2
f 18/34/3 8/5/3 7/22/3
f 7/22/4 8/5/4 18/34/4
f 9/24/2 8/23/2 13/12/2
f 13/12/1 8/23/1 9/24/1
f 19/35/5 3/8/5 13/26/5
f 13/26/6 3/8/6 19/35/6
f 14/28/5 3/8/5 20/36/5
f 20/36/6 3/8/6 14/28/6
f 14/37/8 11/38/8 10/39/8
f 10/39/7 11/38/7 14/37/7
f 15/31/4 11/18/4 21/40/4
f 21/40/3 11/18/3 15/31/3
f 15/41/1 16/32/1 1/1/1
f 1/1/2 16/32/2 15/41/2
f 16/42/3 22/33/3 12/43/3
f 12/43/4 22/33/4 16/42/4
f 7/11/1 17/33/1 23/34/1
f 23/34/2 17/33/2 7/11/2
f 22/44/7 17/13/7 12/14/7
f 12/14/8 17/13/8 22/44/8
f 18/34/3 24/15/3 8/5/3
f 8/5/4 24/15/4 18/34/4
f 7/45/8 25/46/8 18/44/8
f 18/44/7 25/46/7 7/45/7
f 13/12/2 8/23/2 24/47/2
f 24/47/1 8/23/1 13/12/1
f 20/36/5 3/8/5 19/35/5
f 19/35/6 3/8/6 20/36/6
f 26/48/5 19/35/5 13/26/5
f 13/26/6 19/35/6 26/48/6
f 27/49/5 14/28/5 20/36/5
f 20/36/6 14/28/6 27/49/6
f 11/38/8 14/37/8 28/50/8
f 28/50/7 14/37/7 11/38/7
f 21/40/4 11/18/4 29/51/4
f 29/51/3 11/18/3 21/40/3
f 15/31/4 21/40/4 30/52/4
f 30/52/3 21/40/3 15/31/3
f 31/53/1 16/32/1 15/41/1
f 15/41/2 16/32/2 31/53/2
f 22/33/3 16/42/3 32/54/3
f 32/54/4 16/42/4 22/33/4
f 17/43/3 25/34/3 23/22/3
f 23/22/4 25/34/4 17/43/4
f 25/46/8 7/45/8 23/55/8
f 23/55/7 7/45/7 25/46/7
f 17/13/7 22/44/7 33/46/7
f 33/46/8 22/44/8 17/13/8
f 26/56/3 24/15/3 18/34/3
f 18/34/4 24/15/4 26/56/4
f 25/57/2 22/58/2 18/59/2
f 18/59/1 22/58/1 25/57/1
f 24/15/3 26/56/3 13/60/3
f 13/60/4 26/56/4 24/15/4
f 19/61/8 34/62/8 20/63/8
f 20/63/7 34/62/7 19/61/7
f 35/64/5 19/35/5 26/48/5
f 26/48/6 19/35/6 35/64/6
f 14/28/5 27/49/5 36/65/5
f 36/65/6 27/49/6 14/28/6
f 27/1/2 20/29/2 34/30/2
f 34/30/1 20/29/1 27/1/1
f 28/66/1 14/67/1 36/1/1
f 36/1/2 14/67/2 28/66/2
f 28/68/4 37/69/4 11/18/4
f 11/18/3 37/69/3 28/68/3
f 11/18/4 37/69/4 29/51/4
f 29/51/3 37/69/3 11/18/3
f 21/40/4 29/51/4 38/70/4
f 38/70/3 29/51/3 21/40/3
f 21/71/2 39/72/2 30/73/2
f 30/73/1 39/72/1 21/71/1
f 39/74/9 15/75/9 30/76/9
f 30/76/10 15/75/10 39/74/10
f 16/32/1 31/53/1 40/77/1
f 40/77/2 31/53/2 16/32/2
f 39/74/9 31/78/9 15/75/9
f 15/75/10 31/78/10 39/74/10
f 40/55/8 32/79/8 16/45/8
f 16/45/7 32/79/7 40/55/7
f 22/33/3 32/54/3 41/80/3
f 41/80/4 32/54/4 22/33/4
f 25/34/3 17/43/3 33/33/3
f 33/33/4 17/43/4 25/34/4
f 22/58/2 25/57/2 33/81/2
f 33/81/1 25/57/1 22/58/1
f 18/59/2 37/73/2 26/12/2
f 26/12/1 37/73/1 18/59/1
f 22/58/2 37/73/2 18/59/2
f 18/59/1 37/73/1 22/58/1
f 34/62/8 19/61/8 42/82/8
f 42/82/7 19/61/7 34/62/7
f 19/35/5 35/64/5 43/83/5
f 43/83/6 35/64/6 19/35/6
f 26/12/2 37/73/2 35/1/2
f 35/1/1 37/73/1 26/12/1
f 34/84/4 36/85/4 27/86/4
f 27/86/3 36/85/3 34/84/3
f 36/85/4 34/84/4 28/68/4
f 28/68/3 34/84/3 36/85/3
f 34/84/4 37/69/4 28/68/4
f 28/68/3 37/69/3 34/84/3
f 29/51/4 37/69/4 44/87/4
f 44/87/3 37/69/3 29/51/3
f 45/88/7 38/89/7 29/90/7
f 29/90/8 38/89/8 45/88/8
f 21/40/4 38/70/4 46/91/4
f 46/91/3 38/70/3 21/40/3
f 46/92/7 39/93/7 21/94/7
f 21/94/8 39/93/8 46/92/8
f 31/95/3 47/54/3 40/42/3
f 40/42/4 47/54/4 31/95/4
f 48/96/9 31/78/9 39/74/9
f 39/74/10 31/78/10 48/96/10
f 32/79/8 40/55/8 47/56/8
f 47/56/7 40/55/7 32/79/7
f 41/80/3 32/54/3 48/97/3
f 48/97/4 32/54/4 41/80/4
f 37/73/2 22/58/2 41/98/2
f 41/98/1 22/58/1 37/73/1
f 42/66/1 19/67/1 43/1/1
f 43/1/2 19/67/2 42/66/2
f 42/99/4 37/69/4 34/84/4
f 34/84/3 37/69/3 42/99/3
f 37/69/4 43/100/4 35/46/4
f 35/46/3 43/100/3 37/69/3
f 37/101/9 45/102/9 44/103/9
f 44/103/10 45/102/10 37/101/10
f 44/41/1 45/104/1 29/105/1
f 29/105/2 45/104/2 44/41/2
f 38/89/7 45/88/7 49/106/7
f 49/106/8 45/88/8 38/89/8
f 50/107/4 46/91/4 38/70/4
f 38/70/3 46/91/3 50/107/3
f 39/93/7 46/92/7 51/108/7
f 51/108/8 46/92/8 39/93/8
f 47/54/3 31/95/3 52/109/3
f 52/109/4 31/95/4 47/54/4
f 31/78/9 48/96/9 52/110/9
f 52/110/10 48/96/10 31/78/10
f 48/96/9 39/74/9 41/111/9
f 41/111/10 39/74/10 48/96/10
f 47/112/2 48/98/2 32/113/2
f 32/113/1 48/98/1 47/112/1
f 41/111/9 45/102/9 37/101/9
f 37/101/10 45/102/10 41/111/10
f 43/100/4 37/69/4 42/99/4
f 42/99/3 37/69/3 43/100/3
f 45/102/9 51/114/9 49/115/9
f 49/115/10 51/114/10 45/102/10
f 38/71/2 49/72/2 50/73/2
f 50/73/1 49/72/1 38/71/1
f 46/91/4 50/107/4 53/116/4
f 53/116/3 50/107/3 46/91/3
f 53/41/1 51/104/1 46/105/1
f 46/105/2 51/104/2 53/41/2
f 45/102/9 39/74/9 51/114/9
f 51/114/10 39/74/10 45/102/10
f 48/98/2 47/112/2 52/117/2
f 52/117/1 47/112/1 48/98/1
f 45/102/9 41/111/9 39/74/9
f 39/74/10 41/111/10 45/102/10
f 53/118/9 49/115/9 51/114/9
f 51/114/10 49/115/10 53/118/10
f 49/115/9 53/118/9 50/119/9
f 50/119/10 53/118/10 49/115/10
