# SSTK version 0.8.0
# 12
mtllib original-12.mtl
o Countertop_1_1/Countertop_1/mesh25/mesh25-geometry#mesh25-geometry
v -0.660088 0.458745 0.421027
v 0.700410 0.488663 0.421027
v -0.660088 0.488663 0.421027
v 0.700410 0.458745 0.421027
v -0.660088 0.488663 -0.400941
v -0.660088 0.458745 -0.396217
v 0.700410 0.458745 -0.396217
v 0.700410 0.488663 -0.400941
v 0.700410 0.463469 -0.400941
v -0.660088 0.463469 -0.400941
vt 0 0.010389
vt -0.472441 0
vt 0 0
vt -0.472441 0.010389
vt -0.472441 0.285433
vt 0 0.285433
vt -0.285433 0
vt -0.00164 0.010389
vt -0.285433 0.010389
vt 0.472441 0.00164
vt 0.472441 0.285433
vt 0.00164 0.010389
vt 0.285433 0
vt 0.285433 0.010389
vt 0 0.00164
vt 0 0.008749
vt 0.472441 0.008749
vt 0.472441 0
vt 0 0.006186
vt 0.472441 0.008506
vt 0 0.008506
vt 0.472441 0.006186
vn 0 0 1
vn 0 0 -1
vn 0 1 0
vn 0 -1 0
vn -1 0 0
vn 1 0 0
vn 0 -0.7071067811865474 -0.7071067811865477
vn 0 0.7071067811865474 0.7071067811865477
usemtl material_0_0
f 1/1/1 2/2/1 3/3/1
f 2/2/1 1/1/1 4/4/1
f 3/3/2 2/2/2 1/1/2
f 4/4/2 1/1/2 2/2/2
f 2/5/3 5/3/3 3/6/3
f 3/6/4 5/3/4 2/5/4
f 3/7/5 6/8/5 1/9/5
f 1/9/6 6/8/6 3/7/6
f 1/6/4 7/10/4 4/11/4
f 4/11/3 7/10/3 1/6/3
f 7/12/6 2/13/6 4/14/6
f 4/14/5 2/13/5 7/12/5
f 5/3/3 2/5/3 8/2/3
f 8/2/4 2/5/4 5/3/4
f 5/3/5 6/8/5 3/7/5
f 3/7/6 6/8/6 5/3/6
f 7/10/4 1/6/4 6/15/4
f 6/15/3 1/6/3 7/10/3
f 9/16/6 2/13/6 7/12/6
f 7/12/5 2/13/5 9/16/5
f 2/13/6 9/16/6 8/3/6
f 8/3/5 9/16/5 2/13/5
f 9/17/2 5/3/2 8/18/2
f 8/18/1 5/3/1 9/17/1
f 6/8/5 5/3/5 10/16/5
f 10/16/6 5/3/6 6/8/6
f 10/19/7 7/20/7 6/21/7
f 6/21/8 7/20/8 10/19/8
f 7/20/7 10/19/7 9/22/7
f 9/22/8 10/19/8 7/20/8
f 5/3/2 9/17/2 10/16/2
f 10/16/1 9/17/1 5/3/1
